<svg width="2073" height="2215" viewBox="0 0 2073 2215" fill="none" xmlns="http://www.w3.org/2000/svg">
<rect width="2073" height="2215" fill="white"/>
<path d="M1266.18 1130.06C1263.9 1130.06 1262.12 1129.54 1260.84 1128.51C1259.57 1127.47 1258.93 1125.95 1258.92 1123.96H1261.52C1261.56 1126.55 1263.14 1127.85 1266.23 1127.85C1267.51 1127.85 1268.49 1127.61 1269.17 1127.12C1269.87 1126.62 1270.22 1125.9 1270.22 1124.96C1270.22 1124.2 1269.93 1123.61 1269.37 1123.21C1268.8 1122.79 1267.78 1122.41 1266.3 1122.09L1264.82 1121.77C1263.04 1121.42 1261.69 1120.83 1260.79 1120.02C1259.88 1119.21 1259.43 1118.1 1259.43 1116.67C1259.43 1115.24 1259.98 1114.11 1261.08 1113.27C1262.18 1112.41 1263.67 1111.98 1265.55 1111.98C1267.82 1111.98 1269.52 1112.47 1270.65 1113.44C1271.81 1114.41 1272.4 1115.75 1272.43 1117.45H1269.85C1269.77 1116.33 1269.4 1115.51 1268.73 1114.99C1268.09 1114.46 1267.03 1114.19 1265.58 1114.19C1264.44 1114.19 1263.57 1114.4 1262.97 1114.82C1262.37 1115.24 1262.08 1115.84 1262.08 1116.62C1262.08 1117.42 1262.34 1118.02 1262.88 1118.42C1263.41 1118.86 1264.4 1119.23 1265.84 1119.54L1267.35 1119.85C1269.33 1120.28 1270.74 1120.88 1271.6 1121.68C1272.48 1122.47 1272.91 1123.54 1272.91 1124.89C1272.91 1126.49 1272.32 1127.75 1271.12 1128.68C1269.93 1129.6 1268.29 1130.06 1266.18 1130.06ZM1282.25 1130.06C1279.69 1130.06 1277.64 1129.23 1276.12 1127.56C1274.57 1125.91 1273.79 1123.73 1273.79 1121.02C1273.79 1118.33 1274.57 1116.14 1276.12 1114.46C1277.64 1112.81 1279.69 1111.98 1282.25 1111.98C1284.77 1111.98 1286.82 1112.81 1288.37 1114.46C1289.91 1116.14 1290.68 1118.33 1290.68 1121.02C1290.68 1123.71 1289.91 1125.89 1288.37 1127.56C1286.82 1129.23 1284.77 1130.06 1282.25 1130.06ZM1278.07 1125.91C1279.1 1127.12 1280.5 1127.73 1282.25 1127.73C1284 1127.73 1285.39 1127.12 1286.43 1125.91C1287.46 1124.72 1287.98 1123.1 1287.98 1121.02C1287.98 1118.95 1287.46 1117.31 1286.43 1116.11C1285.37 1114.91 1283.98 1114.31 1282.25 1114.31C1280.51 1114.31 1279.12 1114.91 1278.07 1116.11C1277.01 1117.34 1276.49 1118.98 1276.49 1121.02C1276.49 1123.08 1277.01 1124.71 1278.07 1125.91ZM1295.07 1112.37V1127.34H1303.56V1129.67H1292.47V1112.37H1295.07ZM1316.19 1128.26C1314.96 1129.45 1313.24 1130.04 1311.04 1130.04C1308.83 1130.04 1307.12 1129.45 1305.89 1128.26C1304.65 1127.06 1304.04 1125.38 1304.04 1123.21V1112.37H1306.64V1123.23C1306.64 1124.72 1307.01 1125.85 1307.76 1126.61C1308.52 1127.37 1309.61 1127.75 1311.04 1127.75C1312.46 1127.75 1313.55 1127.37 1314.29 1126.61C1315.06 1125.85 1315.44 1124.72 1315.44 1123.23V1112.37H1318.04V1123.21C1318.04 1125.38 1317.42 1127.06 1316.19 1128.26ZM1332.83 1123.28H1335.43C1335.21 1125.29 1334.48 1126.86 1333.24 1128C1331.96 1129.18 1330.43 1129.85 1328.65 1130.01L1327.7 1131.11H1327.95C1328.64 1131.11 1329.2 1131.29 1329.62 1131.64C1330.04 1132.01 1330.26 1132.48 1330.26 1133.03C1330.26 1133.76 1329.96 1134.32 1329.38 1134.73C1328.81 1135.15 1327.95 1135.36 1326.8 1135.36C1326.25 1135.36 1325.73 1135.31 1325.25 1135.21V1134.02C1325.7 1134.09 1326.17 1134.12 1326.66 1134.12C1327.68 1134.12 1328.19 1133.76 1328.19 1133.05C1328.19 1132.4 1327.73 1132.08 1326.8 1132.08C1326.5 1132.08 1326.27 1132.09 1326.12 1132.1V1131.18L1327.02 1130.04C1324.8 1129.86 1323.01 1128.96 1321.65 1127.34C1320.27 1125.75 1319.59 1123.65 1319.59 1121.02C1319.59 1118.27 1320.34 1116.07 1321.85 1114.43C1323.35 1112.8 1325.32 1111.98 1327.75 1111.98C1329.66 1111.98 1331.31 1112.49 1332.69 1113.51C1334.06 1114.55 1334.95 1116.08 1335.33 1118.1H1332.71C1332.39 1116.84 1331.79 1115.89 1330.91 1115.26C1330.05 1114.61 1329 1114.29 1327.75 1114.29C1326.08 1114.29 1324.75 1114.9 1323.77 1116.11C1322.78 1117.31 1322.28 1118.95 1322.28 1121.02C1322.28 1123.1 1322.78 1124.74 1323.77 1125.95C1324.75 1127.15 1326.08 1127.75 1327.75 1127.75C1329 1127.75 1330.12 1127.37 1331.11 1126.61C1332.06 1125.85 1332.64 1124.74 1332.83 1123.28ZM1342.45 1110.93H1340.63C1340.63 1108.88 1341.39 1107.85 1342.92 1107.85C1343.43 1107.85 1344.14 1108.06 1345.03 1108.48C1345.73 1108.8 1346.23 1108.97 1346.54 1108.97C1346.99 1108.97 1347.22 1108.59 1347.22 1107.85H1349.04C1349.04 1109.91 1348.28 1110.93 1346.76 1110.93C1346.27 1110.93 1345.54 1110.72 1344.57 1110.28C1343.9 1109.97 1343.43 1109.82 1343.13 1109.82C1342.68 1109.82 1342.45 1110.19 1342.45 1110.93ZM1344.86 1130.06C1342.3 1130.06 1340.26 1129.23 1338.74 1127.56C1337.18 1125.91 1336.4 1123.73 1336.4 1121.02C1336.4 1118.33 1337.18 1116.14 1338.74 1114.46C1340.26 1112.81 1342.3 1111.98 1344.86 1111.98C1347.39 1111.98 1349.43 1112.81 1350.98 1114.46C1352.52 1116.14 1353.29 1118.33 1353.29 1121.02C1353.29 1123.71 1352.52 1125.89 1350.98 1127.56C1349.43 1129.23 1347.39 1130.06 1344.86 1130.06ZM1340.68 1125.91C1341.72 1127.12 1343.11 1127.73 1344.86 1127.73C1346.61 1127.73 1348 1127.12 1349.04 1125.91C1350.08 1124.72 1350.6 1123.1 1350.6 1121.02C1350.6 1118.95 1350.08 1117.31 1349.04 1116.11C1347.99 1114.91 1346.59 1114.31 1344.86 1114.31C1343.13 1114.31 1341.73 1114.91 1340.68 1116.11C1339.63 1117.34 1339.1 1118.98 1339.1 1121.02C1339.1 1123.08 1339.63 1124.71 1340.68 1125.91ZM1367.43 1112.37V1114.7H1357.69V1119.59H1366.51V1121.87H1357.69V1127.34H1367.36V1129.67H1355.09V1112.37H1367.43ZM1375.43 1130.06C1373.14 1130.06 1371.36 1129.54 1370.08 1128.51C1368.81 1127.47 1368.17 1125.95 1368.16 1123.96H1370.76C1370.81 1126.55 1372.38 1127.85 1375.47 1127.85C1376.75 1127.85 1377.73 1127.61 1378.41 1127.12C1379.11 1126.62 1379.46 1125.9 1379.46 1124.96C1379.46 1124.2 1379.18 1123.61 1378.61 1123.21C1378.04 1122.79 1377.02 1122.41 1375.55 1122.09L1374.06 1121.77C1372.28 1121.42 1370.94 1120.83 1370.03 1120.02C1369.12 1119.21 1368.67 1118.1 1368.67 1116.67C1368.67 1115.24 1369.22 1114.11 1370.32 1113.27C1371.42 1112.41 1372.91 1111.98 1374.79 1111.98C1377.06 1111.98 1378.76 1112.47 1379.9 1113.44C1381.05 1114.41 1381.64 1115.75 1381.67 1117.45H1379.09C1379.01 1116.33 1378.64 1115.51 1377.98 1114.99C1377.33 1114.46 1376.28 1114.19 1374.82 1114.19C1373.68 1114.19 1372.82 1114.4 1372.22 1114.82C1371.62 1115.24 1371.32 1115.84 1371.32 1116.62C1371.32 1117.42 1371.58 1118.02 1372.12 1118.42C1372.65 1118.86 1373.64 1119.23 1375.08 1119.54L1376.59 1119.85C1378.57 1120.28 1379.99 1120.88 1380.84 1121.68C1381.72 1122.47 1382.16 1123.54 1382.16 1124.89C1382.16 1126.49 1381.56 1127.75 1380.36 1128.68C1379.18 1129.6 1377.53 1130.06 1375.43 1130.06ZM1272.09 1141.37V1143.7H1262.34V1148.59H1271.17V1150.87H1262.34V1156.34H1272.02V1158.67H1259.74V1141.37H1272.09ZM1284.43 1150.34L1287.86 1141.37H1291.48V1158.67H1288.97V1153.25C1288.97 1149.35 1289.01 1146.42 1289.07 1144.48C1288.73 1145.52 1288.24 1146.85 1287.61 1148.49L1283.7 1158.67H1281.51L1277.55 1148.49C1277.02 1147.06 1276.54 1145.75 1276.12 1144.55C1276.18 1146.48 1276.21 1149.38 1276.21 1153.25V1158.67H1273.71V1141.37H1277.31L1280.86 1150.58C1281.58 1152.49 1282.18 1154.12 1282.63 1155.47C1283.16 1153.86 1283.76 1152.15 1284.43 1150.34ZM1310.06 1146.62V1141.37H1312.56V1158.67H1309.57L1304.25 1150.29C1302.7 1147.86 1301.57 1146 1300.87 1144.72C1300.94 1146.65 1300.97 1149.55 1300.97 1153.42V1158.67H1298.44V1141.37H1301.43L1306.78 1149.75C1308.22 1152.04 1309.35 1153.9 1310.16 1155.34C1310.09 1153.4 1310.06 1150.49 1310.06 1146.62ZM1327.46 1141.37V1143.7H1317.72V1148.59H1326.54V1150.87H1317.72V1156.34H1327.39V1158.67H1315.12V1141.37H1327.46ZM1336.94 1151.8V1149.58H1344.47V1158.67H1342.48L1342.02 1156.36C1340.72 1158.16 1338.84 1159.06 1336.38 1159.06C1333.89 1159.06 1331.9 1158.23 1330.43 1156.56C1328.92 1154.91 1328.17 1152.73 1328.17 1150.02C1328.17 1147.28 1328.93 1145.1 1330.45 1143.46C1331.96 1141.81 1333.98 1140.98 1336.53 1140.98C1338.65 1140.98 1340.41 1141.53 1341.8 1142.63C1343.18 1143.75 1344 1145.23 1344.28 1147.08H1341.61C1341.36 1145.91 1340.78 1144.99 1339.86 1144.31C1338.95 1143.63 1337.85 1143.29 1336.55 1143.29C1334.82 1143.29 1333.44 1143.9 1332.42 1145.11C1331.38 1146.31 1330.86 1147.95 1330.86 1150.02C1330.86 1152.1 1331.38 1153.73 1332.42 1154.93C1333.47 1156.15 1334.87 1156.75 1336.6 1156.75C1338.11 1156.75 1339.38 1156.28 1340.42 1155.34C1341.45 1154.42 1342 1153.24 1342.04 1151.8H1336.94ZM1355.51 1139.93H1353.42L1355.53 1136.43H1358.57L1355.51 1139.93ZM1354.49 1159.06C1351.93 1159.06 1349.88 1158.23 1348.36 1156.56C1346.8 1154.91 1346.03 1152.73 1346.03 1150.02C1346.03 1147.33 1346.8 1145.14 1348.36 1143.46C1349.88 1141.81 1351.93 1140.98 1354.49 1140.98C1357.01 1140.98 1359.05 1141.81 1360.61 1143.46C1362.15 1145.14 1362.92 1147.33 1362.92 1150.02C1362.92 1152.71 1362.15 1154.89 1360.61 1156.56C1359.05 1158.23 1357.01 1159.06 1354.49 1159.06ZM1350.3 1154.91C1351.34 1156.12 1352.74 1156.73 1354.49 1156.73C1356.24 1156.73 1357.63 1156.12 1358.67 1154.91C1359.7 1153.72 1360.22 1152.1 1360.22 1150.02C1360.22 1147.95 1359.7 1146.31 1358.67 1145.11C1357.61 1143.91 1356.22 1143.31 1354.49 1143.31C1352.75 1143.31 1351.36 1143.91 1350.3 1145.11C1349.25 1146.34 1348.72 1147.98 1348.72 1150.02C1348.72 1152.08 1349.25 1153.71 1350.3 1154.91ZM1372.15 1159.06C1369.74 1159.06 1367.77 1158.24 1366.27 1156.61C1364.74 1154.99 1363.98 1152.79 1363.98 1150.02C1363.98 1147.27 1364.74 1145.07 1366.24 1143.43C1367.75 1141.8 1369.72 1140.98 1372.15 1140.98C1374.06 1140.98 1375.71 1141.49 1377.08 1142.51C1378.46 1143.55 1379.34 1145.08 1379.73 1147.1H1377.11C1376.78 1145.84 1376.18 1144.89 1375.31 1144.26C1374.45 1143.61 1373.4 1143.29 1372.15 1143.29C1370.48 1143.29 1369.15 1143.9 1368.16 1145.11C1367.17 1146.31 1366.68 1147.95 1366.68 1150.02C1366.68 1152.1 1367.17 1153.74 1368.16 1154.95C1369.15 1156.15 1370.48 1156.75 1372.15 1156.75C1373.4 1156.75 1374.51 1156.37 1375.5 1155.61C1376.46 1154.85 1377.03 1153.74 1377.23 1152.28H1379.83C1379.62 1154.44 1378.78 1156.11 1377.33 1157.29C1375.88 1158.47 1374.16 1159.06 1372.15 1159.06ZM1384.13 1158.67H1381.53V1141.37H1384.13V1158.67ZM1394.4 1159.06C1391.84 1159.06 1389.79 1158.23 1388.27 1156.56C1386.72 1154.91 1385.94 1152.73 1385.94 1150.02C1385.94 1147.33 1386.72 1145.14 1388.27 1143.46C1389.79 1141.81 1391.84 1140.98 1394.4 1140.98C1396.92 1140.98 1398.97 1141.81 1400.52 1143.46C1402.06 1145.14 1402.83 1147.33 1402.83 1150.02C1402.83 1152.71 1402.06 1154.89 1400.52 1156.56C1398.97 1158.23 1396.92 1159.06 1394.4 1159.06ZM1390.22 1154.91C1391.25 1156.12 1392.65 1156.73 1394.4 1156.73C1396.15 1156.73 1397.54 1156.12 1398.58 1154.91C1399.61 1153.72 1400.13 1152.1 1400.13 1150.02C1400.13 1147.95 1399.61 1146.31 1398.58 1145.11C1397.52 1143.91 1396.13 1143.31 1394.4 1143.31C1392.66 1143.31 1391.27 1143.91 1390.22 1145.11C1389.16 1146.34 1388.64 1147.98 1388.64 1150.02C1388.64 1152.08 1389.16 1153.71 1390.22 1154.91ZM1410.85 1159.06C1408.57 1159.06 1406.78 1158.54 1405.5 1157.51C1404.24 1156.47 1403.6 1154.95 1403.58 1152.96H1406.18C1406.23 1155.55 1407.8 1156.85 1410.9 1156.85C1412.18 1156.85 1413.16 1156.61 1413.84 1156.12C1414.54 1155.62 1414.89 1154.9 1414.89 1153.96C1414.89 1153.2 1414.6 1152.61 1414.03 1152.21C1413.47 1151.79 1412.45 1151.41 1410.97 1151.09L1409.49 1150.77C1407.71 1150.42 1406.36 1149.83 1405.45 1149.02C1404.55 1148.21 1404.09 1147.1 1404.09 1145.67C1404.09 1144.24 1404.64 1143.11 1405.75 1142.27C1406.85 1141.41 1408.34 1140.98 1410.22 1140.98C1412.49 1140.98 1414.19 1141.47 1415.32 1142.44C1416.47 1143.41 1417.06 1144.75 1417.1 1146.45H1414.52C1414.44 1145.33 1414.07 1144.51 1413.4 1143.99C1412.75 1143.46 1411.7 1143.19 1410.24 1143.19C1409.11 1143.19 1408.24 1143.4 1407.64 1143.82C1407.04 1144.24 1406.74 1144.84 1406.74 1145.62C1406.74 1146.42 1407.01 1147.02 1407.55 1147.42C1408.08 1147.86 1409.07 1148.23 1410.51 1148.54L1412.02 1148.85C1413.99 1149.28 1415.41 1149.88 1416.27 1150.68C1417.15 1151.47 1417.58 1152.54 1417.58 1153.89C1417.58 1155.49 1416.98 1156.75 1415.78 1157.68C1414.6 1158.6 1412.96 1159.06 1410.85 1159.06ZM1275.1 1187.67H1272.36L1270.65 1183.18H1262.88L1261.2 1187.67H1258.5L1265.26 1170.37H1268.25L1275.1 1187.67ZM1264.07 1179.97L1263.7 1180.92H1269.8L1269.44 1179.97C1268.58 1177.83 1267.68 1175.46 1266.74 1172.87C1265.62 1175.85 1264.73 1178.22 1264.07 1179.97ZM1286.73 1179.34L1290.16 1170.37H1293.78V1187.67H1291.28V1182.25C1291.28 1178.35 1291.31 1175.42 1291.37 1173.48C1291.03 1174.52 1290.55 1175.85 1289.91 1177.49L1286 1187.67H1283.81L1279.85 1177.49C1279.32 1176.06 1278.84 1174.75 1278.42 1173.55C1278.48 1175.48 1278.52 1178.38 1278.52 1182.25V1187.67H1276.01V1170.37H1279.61L1283.16 1179.58C1283.89 1181.49 1284.48 1183.12 1284.93 1184.47C1285.47 1182.86 1286.07 1181.15 1286.73 1179.34ZM1306.91 1178.63C1307.9 1179 1308.65 1179.56 1309.15 1180.28C1309.65 1181 1309.9 1181.82 1309.9 1182.76C1309.9 1184.29 1309.4 1185.49 1308.4 1186.36C1307.41 1187.24 1305.98 1187.67 1304.12 1187.67H1296.32V1170.37H1303.78C1305.53 1170.37 1306.87 1170.78 1307.79 1171.61C1308.73 1172.43 1309.2 1173.52 1309.2 1174.87C1309.2 1176.55 1308.44 1177.81 1306.91 1178.63ZM1303.61 1172.6H1298.92V1177.78H1303.61C1305.63 1177.78 1306.65 1176.88 1306.65 1175.08C1306.65 1174.31 1306.38 1173.7 1305.85 1173.26C1305.33 1172.82 1304.58 1172.6 1303.61 1172.6ZM1298.92 1185.44H1303.97C1305.04 1185.44 1305.86 1185.2 1306.43 1184.73C1307 1184.26 1307.28 1183.59 1307.28 1182.72C1307.28 1180.87 1306.18 1179.94 1303.97 1179.94H1298.92V1185.44ZM1314.07 1187.67H1311.47V1170.37H1314.07V1187.67ZM1328.96 1170.37V1172.7H1319.21V1177.59H1328.04V1179.87H1319.21V1185.34H1328.89V1187.67H1316.61V1170.37H1328.96ZM1342.2 1175.62V1170.37H1344.7V1187.67H1341.71L1336.39 1179.29C1334.83 1176.86 1333.71 1175 1333.01 1173.72C1333.08 1175.65 1333.11 1178.55 1333.11 1182.42V1187.67H1330.58V1170.37H1333.57L1338.92 1178.75C1340.36 1181.04 1341.49 1182.9 1342.3 1184.34C1342.23 1182.4 1342.2 1179.49 1342.2 1175.62ZM1346 1170.37H1360.12V1172.7H1354.38V1187.67H1351.73V1172.7H1346V1170.37ZM1373.69 1187.67H1370.94L1369.24 1183.18H1361.46L1359.79 1187.67H1357.09L1363.84 1170.37H1366.83L1373.69 1187.67ZM1362.65 1179.97L1362.29 1180.92H1368.39L1368.02 1179.97C1367.17 1177.83 1366.27 1175.46 1365.33 1172.87C1364.21 1175.85 1363.32 1178.22 1362.65 1179.97ZM1377.2 1187.67H1374.6V1170.37H1377.2V1187.67ZM1386.18 1188.06C1383.89 1188.06 1382.11 1187.54 1380.83 1186.51C1379.57 1185.47 1378.93 1183.95 1378.91 1181.96H1381.51C1381.56 1184.55 1383.13 1185.85 1386.23 1185.85C1387.51 1185.85 1388.49 1185.61 1389.17 1185.12C1389.86 1184.62 1390.21 1183.9 1390.21 1182.96C1390.21 1182.2 1389.93 1181.61 1389.36 1181.21C1388.79 1180.79 1387.77 1180.41 1386.3 1180.09L1384.82 1179.77C1383.03 1179.42 1381.69 1178.83 1380.78 1178.02C1379.87 1177.21 1379.42 1176.1 1379.42 1174.67C1379.42 1173.24 1379.97 1172.11 1381.07 1171.27C1382.18 1170.41 1383.67 1169.98 1385.55 1169.98C1387.81 1169.98 1389.52 1170.47 1390.65 1171.44C1391.8 1172.41 1392.39 1173.75 1392.42 1175.45H1389.85C1389.77 1174.33 1389.39 1173.51 1388.73 1172.99C1388.08 1172.46 1387.03 1172.19 1385.57 1172.19C1384.44 1172.19 1383.57 1172.4 1382.97 1172.82C1382.37 1173.24 1382.07 1173.84 1382.07 1174.62C1382.07 1175.42 1382.34 1176.02 1382.87 1176.42C1383.41 1176.86 1384.4 1177.23 1385.84 1177.54L1387.34 1177.85C1389.32 1178.28 1390.74 1178.88 1391.6 1179.68C1392.47 1180.47 1392.91 1181.54 1392.91 1182.89C1392.91 1184.49 1392.31 1185.75 1391.11 1186.68C1389.93 1187.6 1388.28 1188.06 1386.18 1188.06Z" fill="#1A421F"/>
<path d="M775.251 1199.13C773.595 1198.07 773.005 1196.62 773.481 1194.79C780.617 1167.93 769.513 1153.49 744.393 1145.72C721.528 1138.64 700.033 1133.88 680.394 1121.4C666.52 1112.58 658.87 1098.85 658.014 1081.78C655.73 1037.48 688.615 1014.56 729.321 1011.7C752.994 1010.03 776.307 1013.82 799.257 1023.09C805.899 1025.77 811.361 1028.68 815.643 1031.8C817.154 1032.9 818.245 1034.48 818.733 1036.29C819.221 1038.09 819.077 1040.01 818.326 1041.73C814.044 1051.51 810.228 1059.81 806.879 1066.62C802.683 1075.16 797.145 1074.87 789.038 1070.53C768.571 1059.54 746.848 1053.69 723.926 1057.03C712.079 1058.74 700.575 1069.51 708.882 1081.87C711.08 1085.15 719.844 1089.83 725.324 1092.06C744.707 1099.94 768.942 1103.5 790.637 1115.26C816.29 1129.14 827.27 1151.53 823.578 1182.43C822.931 1187.88 821.694 1192.41 819.867 1196.05C819.297 1197.16 818.438 1198.1 817.383 1198.76C816.327 1199.43 815.114 1199.79 813.873 1199.82C798.686 1200.14 786.669 1200.09 777.82 1199.67C776.583 1199.62 775.726 1199.44 775.251 1199.13Z" fill="#1A421F"/>
<path d="M1023.13 1200.11H987.704C986.02 1200.11 984.403 1199.44 983.202 1198.26C982.001 1197.07 981.311 1195.46 981.281 1193.77C981.109 1184.14 981.052 1148.52 981.109 1086.92C981.138 1052.04 937.321 1054.29 915.34 1061.17C913.75 1061.67 912.36 1062.66 911.369 1064C910.379 1065.34 909.84 1066.96 909.831 1068.62C909.793 1100.1 909.698 1141.62 909.546 1193.2C909.546 1197.71 907.31 1199.99 902.838 1200.05C891.591 1200.2 879.83 1200.17 867.555 1199.96C866.64 1199.94 865.751 1199.66 865 1199.14C864.248 1198.62 863.668 1197.9 863.33 1197.05C862.341 1194.56 861.856 1191.37 861.875 1187.49C861.989 1169.98 861.998 1121.45 861.903 1041.91C861.903 1032.71 865.243 1028.09 873.978 1025.04C918.937 1009.36 1005.6 998.745 1025.36 1056.52C1028.02 1064.3 1029.28 1077.26 1029.15 1095.4C1028.98 1118.96 1028.89 1149.47 1028.89 1186.92C1028.89 1191.74 1029.69 1196.85 1025.18 1199.53C1024.57 1199.91 1023.86 1200.11 1023.13 1200.11Z" fill="#1A421F"/>
<path d="M1225.04 1026.61C1231.3 1029.15 1233.98 1033.29 1233.98 1039.77C1234.09 1099.94 1234.18 1143.95 1234.24 1171.79C1234.24 1181.04 1232.49 1185.72 1223.53 1189.6C1198.22 1200.56 1170.79 1205.13 1141.23 1203.31C1079.6 1199.51 1052.26 1149.44 1059.42 1092.52C1065.19 1046.93 1098.02 1016.22 1143.97 1013.45C1172.08 1011.75 1199.11 1016.14 1225.04 1026.61ZM1106.87 1108.45C1106.95 1148.84 1133.16 1165.85 1171.58 1157.6C1180.26 1155.75 1186.54 1154.04 1186.54 1144.67C1186.5 1132.42 1186.47 1120.29 1186.45 1108.31C1186.43 1096.34 1186.42 1084.22 1186.42 1071.97C1186.39 1062.58 1180.11 1060.89 1171.44 1059.06C1132.98 1050.93 1106.81 1068.03 1106.87 1108.45Z" fill="#1A421F"/>
<circle cx="680.228" cy="1178.24" r="25.4624" fill="#BCF875"/>
<path d="M1266.54 1029.05C1270.21 1025.43 1274.78 1023.62 1280.27 1023.62C1285.75 1023.62 1290.33 1025.43 1294 1029.05C1297.72 1032.67 1299.58 1037.12 1299.58 1042.39C1299.58 1047.56 1297.72 1051.99 1294 1055.66C1290.33 1059.28 1285.75 1061.09 1280.27 1061.09C1274.78 1061.09 1270.21 1059.28 1266.54 1055.66C1262.76 1052.04 1260.87 1047.62 1260.87 1042.39C1260.87 1037.12 1262.76 1032.67 1266.54 1029.05ZM1280.27 1057.21C1284.61 1057.21 1288.23 1055.79 1291.13 1052.94C1294.02 1050.05 1295.47 1046.53 1295.47 1042.39C1295.47 1038.15 1294.02 1034.58 1291.13 1031.69C1288.23 1028.84 1284.61 1027.42 1280.27 1027.42C1275.87 1027.42 1272.25 1028.84 1269.41 1031.69C1266.46 1034.58 1264.98 1038.15 1264.98 1042.39C1264.98 1046.53 1266.46 1050.05 1269.41 1052.94C1272.25 1055.79 1275.87 1057.21 1280.27 1057.21ZM1287.87 1046.35L1288.1 1049.14C1288.15 1050.28 1288.46 1051.24 1289.03 1052.01H1285C1284.53 1051.39 1284.27 1050.43 1284.22 1049.14L1284.07 1047.12C1283.96 1046.04 1283.73 1045.31 1283.37 1044.95C1283.01 1044.54 1282.36 1044.33 1281.43 1044.33H1276.62V1052.01H1272.74V1032.23H1281.35C1283.52 1032.23 1285.23 1032.72 1286.47 1033.7C1287.77 1034.69 1288.41 1036.08 1288.41 1037.89C1288.41 1040.12 1287.46 1041.64 1285.54 1042.47C1286.99 1043.09 1287.77 1044.38 1287.87 1046.35ZM1276.62 1035.72V1041H1281.43C1283.4 1041 1284.38 1040.12 1284.38 1038.36C1284.38 1036.6 1283.32 1035.72 1281.2 1035.72H1276.62Z" fill="#1A421F"/>
</svg>
